<mxfile host="app.diagrams.net" agent="Mozilla/5.0 (Windows NT 10.0; Win64; x64) AppleWebKit/537.36 (KHTML, like Gecko) Chrome/126.0.0.0 Safari/537.36 OPR/112.0.0.0" version="24.7.16">
  <diagram name="Página-1" id="dD90SmdXsx337cMtAzFO">
    <mxGraphModel grid="1" page="1" gridSize="10" guides="1" tooltips="1" connect="1" arrows="1" fold="1" pageScale="1" pageWidth="827" pageHeight="1169" math="0" shadow="0">
      <root>
        <mxCell id="0" />
        <mxCell id="1" parent="0" />
        <mxCell id="UbmrtDJ3BTN43E1XNRnQ-1" value="Interfaz de usuario&lt;div&gt;&lt;br&gt;&lt;/div&gt;" style="verticalAlign=top;align=left;spacingTop=8;spacingLeft=2;spacingRight=12;shape=cube;size=10;direction=south;fontStyle=4;html=1;rounded=0;shadow=0;comic=0;labelBackgroundColor=none;strokeWidth=1;fontFamily=Verdana;fontSize=12" vertex="1" parent="1">
          <mxGeometry x="420" y="140" width="330" height="220" as="geometry" />
        </mxCell>
        <mxCell id="UbmrtDJ3BTN43E1XNRnQ-2" value="Gestión de Productos" style="verticalAlign=top;align=left;spacingTop=8;spacingLeft=2;spacingRight=12;shape=cube;size=10;direction=south;fontStyle=4;html=1;rounded=0;shadow=0;comic=0;labelBackgroundColor=none;strokeWidth=1;fontFamily=Verdana;fontSize=12" vertex="1" parent="1">
          <mxGeometry x="780" y="60" width="370" height="250" as="geometry" />
        </mxCell>
        <mxCell id="UbmrtDJ3BTN43E1XNRnQ-3" value="GreenMarket" style="verticalAlign=top;align=left;spacingTop=8;spacingLeft=2;spacingRight=12;shape=cube;size=10;direction=south;fontStyle=4;html=1;rounded=0;shadow=0;comic=0;labelBackgroundColor=none;strokeWidth=1;fontFamily=Verdana;fontSize=12" vertex="1" parent="1">
          <mxGeometry x="670" y="480" width="260" height="150" as="geometry" />
        </mxCell>
        <mxCell id="UbmrtDJ3BTN43E1XNRnQ-5" value="Module&amp;nbsp;" style="shape=component;align=left;spacingLeft=36;rounded=0;shadow=0;comic=0;labelBackgroundColor=none;strokeWidth=1;fontFamily=Verdana;fontSize=12;html=1;" vertex="1" parent="1">
          <mxGeometry x="600" y="260" width="120" height="60" as="geometry" />
        </mxCell>
        <mxCell id="UbmrtDJ3BTN43E1XNRnQ-6" value="" style="ellipse;whiteSpace=wrap;html=1;rounded=0;shadow=0;comic=0;labelBackgroundColor=none;strokeWidth=1;fontFamily=Verdana;fontSize=12;align=center;" vertex="1" parent="1">
          <mxGeometry x="670" y="330" width="20" height="20" as="geometry" />
        </mxCell>
        <mxCell id="UbmrtDJ3BTN43E1XNRnQ-7" value="Module" style="shape=component;align=left;spacingLeft=36;rounded=0;shadow=0;comic=0;labelBackgroundColor=none;strokeWidth=1;fontFamily=Verdana;fontSize=12;html=1;" vertex="1" parent="1">
          <mxGeometry x="810" y="230" width="120" height="60" as="geometry" />
        </mxCell>
        <mxCell id="UbmrtDJ3BTN43E1XNRnQ-8" value="&lt;span style=&quot;background-color: initial;&quot;&gt;Catalogo&lt;/span&gt;&lt;div&gt;&lt;span style=&quot;background-color: initial;&quot;&gt;&amp;nbsp;de productos&lt;/span&gt;&lt;/div&gt;" style="html=1;rounded=0;shadow=0;comic=0;labelBackgroundColor=none;strokeWidth=1;fontFamily=Verdana;fontSize=12;align=center;" vertex="1" parent="1">
          <mxGeometry x="990" y="235" width="110" height="50" as="geometry" />
        </mxCell>
        <mxCell id="UbmrtDJ3BTN43E1XNRnQ-9" value="" style="ellipse;whiteSpace=wrap;html=1;rounded=0;shadow=0;comic=0;labelBackgroundColor=none;strokeWidth=1;fontFamily=Verdana;fontSize=12;align=center;" vertex="1" parent="1">
          <mxGeometry x="780" y="285" width="20" height="20" as="geometry" />
        </mxCell>
        <mxCell id="UbmrtDJ3BTN43E1XNRnQ-10" value="Module" style="shape=component;align=left;spacingLeft=36;rounded=0;shadow=0;comic=0;labelBackgroundColor=none;strokeWidth=1;fontFamily=Verdana;fontSize=12;html=1;" vertex="1" parent="1">
          <mxGeometry x="740" y="530" width="120" height="60" as="geometry" />
        </mxCell>
        <mxCell id="UbmrtDJ3BTN43E1XNRnQ-11" style="edgeStyle=none;rounded=0;html=1;dashed=1;labelBackgroundColor=none;startArrow=none;startFill=0;startSize=8;endArrow=open;endFill=0;endSize=16;fontFamily=Verdana;fontSize=12;exitX=0.5;exitY=1;exitDx=0;exitDy=0;entryX=-0.009;entryY=0.941;entryDx=0;entryDy=0;entryPerimeter=0;" edge="1" parent="1" source="UbmrtDJ3BTN43E1XNRnQ-6" target="UbmrtDJ3BTN43E1XNRnQ-3">
          <mxGeometry relative="1" as="geometry">
            <mxPoint x="780" y="530" as="sourcePoint" />
          </mxGeometry>
        </mxCell>
        <mxCell id="UbmrtDJ3BTN43E1XNRnQ-12" style="edgeStyle=none;rounded=0;html=1;dashed=1;labelBackgroundColor=none;startArrow=none;startFill=0;startSize=8;endArrow=open;endFill=0;endSize=16;fontFamily=Verdana;fontSize=12;entryX=-0.009;entryY=0.155;entryDx=0;entryDy=0;entryPerimeter=0;exitX=0.997;exitY=0.621;exitDx=0;exitDy=0;exitPerimeter=0;" edge="1" parent="1" source="UbmrtDJ3BTN43E1XNRnQ-2" target="UbmrtDJ3BTN43E1XNRnQ-3">
          <mxGeometry relative="1" as="geometry" />
        </mxCell>
        <mxCell id="UbmrtDJ3BTN43E1XNRnQ-13" style="edgeStyle=elbowEdgeStyle;rounded=0;html=1;labelBackgroundColor=none;startArrow=none;startFill=0;startSize=8;endArrow=none;endFill=0;endSize=16;fontFamily=Verdana;fontSize=12;" edge="1" parent="1" source="UbmrtDJ3BTN43E1XNRnQ-9" target="UbmrtDJ3BTN43E1XNRnQ-7">
          <mxGeometry relative="1" as="geometry" />
        </mxCell>
        <mxCell id="UbmrtDJ3BTN43E1XNRnQ-14" style="edgeStyle=elbowEdgeStyle;rounded=0;html=1;labelBackgroundColor=none;startArrow=none;startFill=0;startSize=8;endArrow=none;endFill=0;endSize=16;fontFamily=Verdana;fontSize=12;" edge="1" parent="1" source="UbmrtDJ3BTN43E1XNRnQ-6" target="UbmrtDJ3BTN43E1XNRnQ-5">
          <mxGeometry relative="1" as="geometry">
            <Array as="points">
              <mxPoint x="670" y="290" />
            </Array>
          </mxGeometry>
        </mxCell>
        <mxCell id="UbmrtDJ3BTN43E1XNRnQ-16" style="edgeStyle=orthogonalEdgeStyle;rounded=0;html=1;dashed=1;labelBackgroundColor=none;startArrow=none;startFill=0;startSize=8;endArrow=open;endFill=0;endSize=16;fontFamily=Verdana;fontSize=12;" edge="1" parent="1" source="UbmrtDJ3BTN43E1XNRnQ-7" target="UbmrtDJ3BTN43E1XNRnQ-8">
          <mxGeometry relative="1" as="geometry" />
        </mxCell>
        <mxCell id="UbmrtDJ3BTN43E1XNRnQ-19" value="Module&amp;nbsp;" style="shape=component;align=left;spacingLeft=36;rounded=0;shadow=0;comic=0;labelBackgroundColor=none;strokeWidth=1;fontFamily=Verdana;fontSize=12;html=1;" vertex="1" parent="1">
          <mxGeometry x="600" y="180" width="120" height="60" as="geometry" />
        </mxCell>
        <mxCell id="UbmrtDJ3BTN43E1XNRnQ-24" value="" style="endArrow=open;dashed=1;html=1;rounded=0;fontSize=12;endFill=0;endSize=16;exitX=0.152;exitY=0.51;exitDx=0;exitDy=0;exitPerimeter=0;" edge="1" parent="1" source="UbmrtDJ3BTN43E1XNRnQ-5" target="UbmrtDJ3BTN43E1XNRnQ-29">
          <mxGeometry width="50" height="50" relative="1" as="geometry">
            <mxPoint x="320" y="490" as="sourcePoint" />
            <mxPoint x="519.1" y="292.20000000000005" as="targetPoint" />
          </mxGeometry>
        </mxCell>
        <mxCell id="UbmrtDJ3BTN43E1XNRnQ-25" value="interfaz&lt;br&gt;&lt;div&gt;Web&lt;/div&gt;" style="html=1;rounded=0;shadow=0;comic=0;labelBackgroundColor=none;strokeWidth=1;fontFamily=Verdana;fontSize=12;align=center;" vertex="1" parent="1">
          <mxGeometry x="430" y="185" width="90" height="50" as="geometry" />
        </mxCell>
        <mxCell id="UbmrtDJ3BTN43E1XNRnQ-26" value="" style="endArrow=open;dashed=1;html=1;rounded=0;fontSize=12;endFill=0;endSize=16;entryX=1.009;entryY=0.568;entryDx=0;entryDy=0;entryPerimeter=0;exitX=0.143;exitY=0.525;exitDx=0;exitDy=0;exitPerimeter=0;" edge="1" parent="1" source="UbmrtDJ3BTN43E1XNRnQ-19" target="UbmrtDJ3BTN43E1XNRnQ-25">
          <mxGeometry width="50" height="50" relative="1" as="geometry">
            <mxPoint x="619" y="220" as="sourcePoint" />
            <mxPoint x="520" y="221" as="targetPoint" />
          </mxGeometry>
        </mxCell>
        <mxCell id="UbmrtDJ3BTN43E1XNRnQ-28" value="Gestión de Usuarios" style="verticalAlign=top;align=left;spacingTop=8;spacingLeft=2;spacingRight=12;shape=cube;size=10;direction=south;fontStyle=4;html=1;rounded=0;shadow=0;comic=0;labelBackgroundColor=none;strokeWidth=1;fontFamily=Verdana;fontSize=12" vertex="1" parent="1">
          <mxGeometry x="40" y="405" width="370" height="250" as="geometry" />
        </mxCell>
        <mxCell id="UbmrtDJ3BTN43E1XNRnQ-29" value="interfaz&lt;br&gt;&lt;div&gt;Móvil&lt;/div&gt;" style="html=1;rounded=0;shadow=0;comic=0;labelBackgroundColor=none;strokeWidth=1;fontFamily=Verdana;fontSize=12;align=center;" vertex="1" parent="1">
          <mxGeometry x="430" y="265" width="90" height="50" as="geometry" />
        </mxCell>
        <mxCell id="UbmrtDJ3BTN43E1XNRnQ-30" value="Module" style="shape=component;align=left;spacingLeft=36;rounded=0;shadow=0;comic=0;labelBackgroundColor=none;strokeWidth=1;fontFamily=Verdana;fontSize=12;html=1;" vertex="1" parent="1">
          <mxGeometry x="810" y="160" width="120" height="60" as="geometry" />
        </mxCell>
        <mxCell id="UbmrtDJ3BTN43E1XNRnQ-31" value="&lt;div&gt;Búsqueda&lt;/div&gt;" style="html=1;rounded=0;shadow=0;comic=0;labelBackgroundColor=none;strokeWidth=1;fontFamily=Verdana;fontSize=12;align=center;" vertex="1" parent="1">
          <mxGeometry x="990" y="165" width="110" height="50" as="geometry" />
        </mxCell>
        <mxCell id="UbmrtDJ3BTN43E1XNRnQ-35" value="Module" style="shape=component;align=left;spacingLeft=36;rounded=0;shadow=0;comic=0;labelBackgroundColor=none;strokeWidth=1;fontFamily=Verdana;fontSize=12;html=1;" vertex="1" parent="1">
          <mxGeometry x="810" y="90" width="120" height="60" as="geometry" />
        </mxCell>
        <mxCell id="UbmrtDJ3BTN43E1XNRnQ-37" value="&lt;br&gt;&lt;div&gt;&lt;font style=&quot;font-size: 12px;&quot;&gt;Recomendaciones&lt;/font&gt;&lt;/div&gt;&lt;div&gt;&lt;font style=&quot;font-size: 12px;&quot;&gt;&amp;nbsp;ia&lt;/font&gt;&lt;/div&gt;" style="html=1;rounded=0;shadow=0;comic=0;labelBackgroundColor=none;strokeWidth=1;fontFamily=Verdana;fontSize=12;align=center;" vertex="1" parent="1">
          <mxGeometry x="990" y="90" width="110" height="50" as="geometry" />
        </mxCell>
        <mxCell id="UbmrtDJ3BTN43E1XNRnQ-38" style="edgeStyle=orthogonalEdgeStyle;rounded=0;html=1;dashed=1;labelBackgroundColor=none;startArrow=none;startFill=0;startSize=8;endArrow=open;endFill=0;endSize=16;fontFamily=Verdana;fontSize=12;entryX=0;entryY=0.5;entryDx=0;entryDy=0;" edge="1" parent="1" source="UbmrtDJ3BTN43E1XNRnQ-30" target="UbmrtDJ3BTN43E1XNRnQ-31">
          <mxGeometry relative="1" as="geometry">
            <mxPoint x="940" y="275" as="sourcePoint" />
            <mxPoint x="1000" y="275" as="targetPoint" />
          </mxGeometry>
        </mxCell>
        <mxCell id="UbmrtDJ3BTN43E1XNRnQ-39" style="edgeStyle=orthogonalEdgeStyle;rounded=0;html=1;dashed=1;labelBackgroundColor=none;startArrow=none;startFill=0;startSize=8;endArrow=open;endFill=0;endSize=16;fontFamily=Verdana;fontSize=12;entryX=0;entryY=0.5;entryDx=0;entryDy=0;exitX=0.987;exitY=0.422;exitDx=0;exitDy=0;exitPerimeter=0;" edge="1" parent="1" source="UbmrtDJ3BTN43E1XNRnQ-35" target="UbmrtDJ3BTN43E1XNRnQ-37">
          <mxGeometry relative="1" as="geometry">
            <mxPoint x="930" y="129.8" as="sourcePoint" />
            <mxPoint x="990" y="129.8" as="targetPoint" />
          </mxGeometry>
        </mxCell>
        <mxCell id="UbmrtDJ3BTN43E1XNRnQ-44" value="Module&amp;nbsp;" style="shape=component;align=left;spacingLeft=36;rounded=0;shadow=0;comic=0;labelBackgroundColor=none;strokeWidth=1;fontFamily=Verdana;fontSize=12;html=1;" vertex="1" parent="1">
          <mxGeometry x="240" y="438" width="120" height="60" as="geometry" />
        </mxCell>
        <mxCell id="UbmrtDJ3BTN43E1XNRnQ-45" value="" style="ellipse;whiteSpace=wrap;html=1;rounded=0;shadow=0;comic=0;labelBackgroundColor=none;strokeWidth=1;fontFamily=Verdana;fontSize=12;align=center;" vertex="1" parent="1">
          <mxGeometry x="370" y="438" width="20" height="20" as="geometry" />
        </mxCell>
        <mxCell id="UbmrtDJ3BTN43E1XNRnQ-46" style="edgeStyle=none;rounded=0;html=1;dashed=1;labelBackgroundColor=none;startArrow=none;startFill=0;startSize=8;endArrow=open;endFill=0;endSize=16;fontFamily=Verdana;fontSize=12;exitX=1;exitY=1;exitDx=0;exitDy=0;entryX=0.328;entryY=1.013;entryDx=0;entryDy=0;entryPerimeter=0;" edge="1" parent="1" source="UbmrtDJ3BTN43E1XNRnQ-45" target="UbmrtDJ3BTN43E1XNRnQ-3">
          <mxGeometry relative="1" as="geometry">
            <mxPoint x="391" y="655" as="sourcePoint" />
          </mxGeometry>
        </mxCell>
        <mxCell id="UbmrtDJ3BTN43E1XNRnQ-47" style="edgeStyle=elbowEdgeStyle;rounded=0;html=1;labelBackgroundColor=none;startArrow=none;startFill=0;startSize=8;endArrow=none;endFill=0;endSize=16;fontFamily=Verdana;fontSize=12;" edge="1" parent="1" source="UbmrtDJ3BTN43E1XNRnQ-45" target="UbmrtDJ3BTN43E1XNRnQ-44">
          <mxGeometry relative="1" as="geometry">
            <Array as="points">
              <mxPoint x="290" y="463" />
            </Array>
          </mxGeometry>
        </mxCell>
        <mxCell id="UbmrtDJ3BTN43E1XNRnQ-49" value="" style="endArrow=open;dashed=1;html=1;rounded=0;fontSize=12;endFill=0;endSize=16;exitX=0.078;exitY=0.546;exitDx=0;exitDy=0;exitPerimeter=0;" edge="1" parent="1" source="UbmrtDJ3BTN43E1XNRnQ-44" target="UbmrtDJ3BTN43E1XNRnQ-50">
          <mxGeometry width="50" height="50" relative="1" as="geometry">
            <mxPoint x="240" y="469" as="sourcePoint" />
            <mxPoint x="141.10000000000002" y="470.20000000000005" as="targetPoint" />
          </mxGeometry>
        </mxCell>
        <mxCell id="UbmrtDJ3BTN43E1XNRnQ-50" value="&lt;font style=&quot;font-size: 12px;&quot;&gt;Registro&amp;nbsp;&lt;/font&gt;&lt;div&gt;&lt;font style=&quot;font-size: 12px;&quot;&gt;de Usuarios&lt;/font&gt;&lt;/div&gt;" style="html=1;rounded=0;shadow=0;comic=0;labelBackgroundColor=none;strokeWidth=1;fontFamily=Verdana;fontSize=12;align=center;" vertex="1" parent="1">
          <mxGeometry x="60" y="448" width="90" height="50" as="geometry" />
        </mxCell>
        <mxCell id="UbmrtDJ3BTN43E1XNRnQ-51" value="Module&amp;nbsp;" style="shape=component;align=left;spacingLeft=36;rounded=0;shadow=0;comic=0;labelBackgroundColor=none;strokeWidth=1;fontFamily=Verdana;fontSize=12;html=1;" vertex="1" parent="1">
          <mxGeometry x="240" y="510" width="120" height="60" as="geometry" />
        </mxCell>
        <mxCell id="UbmrtDJ3BTN43E1XNRnQ-52" value="" style="endArrow=open;dashed=1;html=1;rounded=0;fontSize=12;endFill=0;endSize=16;exitX=0.078;exitY=0.546;exitDx=0;exitDy=0;exitPerimeter=0;" edge="1" parent="1" source="UbmrtDJ3BTN43E1XNRnQ-51" target="UbmrtDJ3BTN43E1XNRnQ-53">
          <mxGeometry width="50" height="50" relative="1" as="geometry">
            <mxPoint x="240" y="541" as="sourcePoint" />
            <mxPoint x="141.10000000000002" y="542.2" as="targetPoint" />
          </mxGeometry>
        </mxCell>
        <mxCell id="UbmrtDJ3BTN43E1XNRnQ-53" value="&lt;div&gt;Autenticación&lt;/div&gt;" style="html=1;rounded=0;shadow=0;comic=0;labelBackgroundColor=none;strokeWidth=1;fontFamily=Verdana;fontSize=12;align=center;" vertex="1" parent="1">
          <mxGeometry x="60" y="520" width="90" height="50" as="geometry" />
        </mxCell>
        <mxCell id="UbmrtDJ3BTN43E1XNRnQ-54" value="Module&amp;nbsp;" style="shape=component;align=left;spacingLeft=36;rounded=0;shadow=0;comic=0;labelBackgroundColor=none;strokeWidth=1;fontFamily=Verdana;fontSize=12;html=1;" vertex="1" parent="1">
          <mxGeometry x="240" y="580" width="120" height="60" as="geometry" />
        </mxCell>
        <mxCell id="UbmrtDJ3BTN43E1XNRnQ-55" value="" style="endArrow=open;dashed=1;html=1;rounded=0;fontSize=12;endFill=0;endSize=16;exitX=0.078;exitY=0.546;exitDx=0;exitDy=0;exitPerimeter=0;" edge="1" parent="1" source="UbmrtDJ3BTN43E1XNRnQ-54" target="UbmrtDJ3BTN43E1XNRnQ-56">
          <mxGeometry width="50" height="50" relative="1" as="geometry">
            <mxPoint x="240" y="611" as="sourcePoint" />
            <mxPoint x="141.10000000000002" y="612.2" as="targetPoint" />
          </mxGeometry>
        </mxCell>
        <mxCell id="UbmrtDJ3BTN43E1XNRnQ-56" value="Gestión&amp;nbsp;&lt;div&gt;de Perfiles&lt;/div&gt;" style="html=1;rounded=0;shadow=0;comic=0;labelBackgroundColor=none;strokeWidth=1;fontFamily=Verdana;fontSize=12;align=center;" vertex="1" parent="1">
          <mxGeometry x="60" y="590" width="90" height="50" as="geometry" />
        </mxCell>
        <mxCell id="UbmrtDJ3BTN43E1XNRnQ-68" value="Sistema de Pagos" style="verticalAlign=top;align=left;spacingTop=8;spacingLeft=2;spacingRight=12;shape=cube;size=10;direction=south;fontStyle=4;html=1;rounded=0;shadow=0;comic=0;labelBackgroundColor=none;strokeWidth=1;fontFamily=Verdana;fontSize=12" vertex="1" parent="1">
          <mxGeometry x="1150" y="580" width="370" height="170" as="geometry" />
        </mxCell>
        <mxCell id="UbmrtDJ3BTN43E1XNRnQ-71" value="" style="ellipse;whiteSpace=wrap;html=1;rounded=0;shadow=0;comic=0;labelBackgroundColor=none;strokeWidth=1;fontFamily=Verdana;fontSize=12;align=center;" vertex="1" parent="1">
          <mxGeometry x="1150" y="620" width="20" height="20" as="geometry" />
        </mxCell>
        <mxCell id="UbmrtDJ3BTN43E1XNRnQ-72" style="edgeStyle=elbowEdgeStyle;rounded=0;html=1;labelBackgroundColor=none;startArrow=none;startFill=0;startSize=8;endArrow=none;endFill=0;endSize=16;fontFamily=Verdana;fontSize=12;" edge="1" parent="1" source="UbmrtDJ3BTN43E1XNRnQ-71" target="UbmrtDJ3BTN43E1XNRnQ-76">
          <mxGeometry relative="1" as="geometry" />
        </mxCell>
        <mxCell id="UbmrtDJ3BTN43E1XNRnQ-74" value="Module" style="shape=component;align=left;spacingLeft=36;rounded=0;shadow=0;comic=0;labelBackgroundColor=none;strokeWidth=1;fontFamily=Verdana;fontSize=12;html=1;" vertex="1" parent="1">
          <mxGeometry x="1180" y="680" width="120" height="60" as="geometry" />
        </mxCell>
        <mxCell id="UbmrtDJ3BTN43E1XNRnQ-75" value="Historial de Pagos" style="html=1;rounded=0;shadow=0;comic=0;labelBackgroundColor=none;strokeWidth=1;fontFamily=Verdana;fontSize=12;align=center;" vertex="1" parent="1">
          <mxGeometry x="1360" y="685" width="110" height="50" as="geometry" />
        </mxCell>
        <mxCell id="UbmrtDJ3BTN43E1XNRnQ-76" value="Module" style="shape=component;align=left;spacingLeft=36;rounded=0;shadow=0;comic=0;labelBackgroundColor=none;strokeWidth=1;fontFamily=Verdana;fontSize=12;html=1;" vertex="1" parent="1">
          <mxGeometry x="1180" y="610" width="120" height="60" as="geometry" />
        </mxCell>
        <mxCell id="UbmrtDJ3BTN43E1XNRnQ-77" value="Transacciones&amp;nbsp;&lt;div&gt;y Pagos&lt;br&gt;&lt;/div&gt;" style="html=1;rounded=0;shadow=0;comic=0;labelBackgroundColor=none;strokeWidth=1;fontFamily=Verdana;fontSize=12;align=center;" vertex="1" parent="1">
          <mxGeometry x="1360" y="610" width="110" height="50" as="geometry" />
        </mxCell>
        <mxCell id="UbmrtDJ3BTN43E1XNRnQ-78" style="edgeStyle=orthogonalEdgeStyle;rounded=0;html=1;dashed=1;labelBackgroundColor=none;startArrow=none;startFill=0;startSize=8;endArrow=open;endFill=0;endSize=16;fontFamily=Verdana;fontSize=12;entryX=0;entryY=0.5;entryDx=0;entryDy=0;" edge="1" parent="1" source="UbmrtDJ3BTN43E1XNRnQ-74" target="UbmrtDJ3BTN43E1XNRnQ-75">
          <mxGeometry relative="1" as="geometry">
            <mxPoint x="1310" y="795" as="sourcePoint" />
            <mxPoint x="1370" y="795" as="targetPoint" />
          </mxGeometry>
        </mxCell>
        <mxCell id="UbmrtDJ3BTN43E1XNRnQ-79" style="edgeStyle=orthogonalEdgeStyle;rounded=0;html=1;dashed=1;labelBackgroundColor=none;startArrow=none;startFill=0;startSize=8;endArrow=open;endFill=0;endSize=16;fontFamily=Verdana;fontSize=12;entryX=0;entryY=0.5;entryDx=0;entryDy=0;exitX=0.987;exitY=0.422;exitDx=0;exitDy=0;exitPerimeter=0;" edge="1" parent="1" source="UbmrtDJ3BTN43E1XNRnQ-76" target="UbmrtDJ3BTN43E1XNRnQ-77">
          <mxGeometry relative="1" as="geometry">
            <mxPoint x="1300" y="649.8" as="sourcePoint" />
            <mxPoint x="1360" y="649.8" as="targetPoint" />
          </mxGeometry>
        </mxCell>
        <mxCell id="UbmrtDJ3BTN43E1XNRnQ-92" style="edgeStyle=none;rounded=0;html=1;dashed=1;labelBackgroundColor=none;startArrow=none;startFill=0;startSize=8;endArrow=open;endFill=0;endSize=16;fontFamily=Verdana;fontSize=12;entryX=0;entryY=0;entryDx=140;entryDy=0;entryPerimeter=0;" edge="1" parent="1" source="UbmrtDJ3BTN43E1XNRnQ-71" target="UbmrtDJ3BTN43E1XNRnQ-3">
          <mxGeometry relative="1" as="geometry">
            <mxPoint x="397" y="465" as="sourcePoint" />
            <mxPoint x="660" y="620" as="targetPoint" />
          </mxGeometry>
        </mxCell>
        <mxCell id="UbmrtDJ3BTN43E1XNRnQ-93" value="Gestión de Calificaciones y Recompensas" style="verticalAlign=top;align=left;spacingTop=8;spacingLeft=2;spacingRight=12;shape=cube;size=10;direction=south;fontStyle=4;html=1;rounded=0;shadow=0;comic=0;labelBackgroundColor=none;strokeWidth=1;fontFamily=Verdana;fontSize=12" vertex="1" parent="1">
          <mxGeometry x="1230" y="190" width="370" height="170" as="geometry" />
        </mxCell>
        <mxCell id="UbmrtDJ3BTN43E1XNRnQ-94" value="" style="ellipse;whiteSpace=wrap;html=1;rounded=0;shadow=0;comic=0;labelBackgroundColor=none;strokeWidth=1;fontFamily=Verdana;fontSize=12;align=center;" vertex="1" parent="1">
          <mxGeometry x="1230" y="230" width="20" height="20" as="geometry" />
        </mxCell>
        <mxCell id="UbmrtDJ3BTN43E1XNRnQ-95" style="edgeStyle=elbowEdgeStyle;rounded=0;html=1;labelBackgroundColor=none;startArrow=none;startFill=0;startSize=8;endArrow=none;endFill=0;endSize=16;fontFamily=Verdana;fontSize=12;" edge="1" parent="1" source="UbmrtDJ3BTN43E1XNRnQ-94" target="UbmrtDJ3BTN43E1XNRnQ-98">
          <mxGeometry relative="1" as="geometry" />
        </mxCell>
        <mxCell id="UbmrtDJ3BTN43E1XNRnQ-96" value="Module" style="shape=component;align=left;spacingLeft=36;rounded=0;shadow=0;comic=0;labelBackgroundColor=none;strokeWidth=1;fontFamily=Verdana;fontSize=12;html=1;" vertex="1" parent="1">
          <mxGeometry x="1260" y="290" width="120" height="60" as="geometry" />
        </mxCell>
        <mxCell id="UbmrtDJ3BTN43E1XNRnQ-97" value="Historial de Pagos" style="html=1;rounded=0;shadow=0;comic=0;labelBackgroundColor=none;strokeWidth=1;fontFamily=Verdana;fontSize=12;align=center;" vertex="1" parent="1">
          <mxGeometry x="1440" y="295" width="110" height="50" as="geometry" />
        </mxCell>
        <mxCell id="UbmrtDJ3BTN43E1XNRnQ-98" value="Module" style="shape=component;align=left;spacingLeft=36;rounded=0;shadow=0;comic=0;labelBackgroundColor=none;strokeWidth=1;fontFamily=Verdana;fontSize=12;html=1;" vertex="1" parent="1">
          <mxGeometry x="1260" y="220" width="120" height="60" as="geometry" />
        </mxCell>
        <mxCell id="UbmrtDJ3BTN43E1XNRnQ-99" value="&lt;div&gt;Sistema&lt;/div&gt;&lt;div&gt;&amp;nbsp;de Calificación&lt;br&gt;&lt;/div&gt;" style="html=1;rounded=0;shadow=0;comic=0;labelBackgroundColor=none;strokeWidth=1;fontFamily=Verdana;fontSize=12;align=center;" vertex="1" parent="1">
          <mxGeometry x="1450" y="220" width="110" height="50" as="geometry" />
        </mxCell>
        <mxCell id="UbmrtDJ3BTN43E1XNRnQ-100" style="edgeStyle=orthogonalEdgeStyle;rounded=0;html=1;dashed=1;labelBackgroundColor=none;startArrow=none;startFill=0;startSize=8;endArrow=open;endFill=0;endSize=16;fontFamily=Verdana;fontSize=12;entryX=0;entryY=0.5;entryDx=0;entryDy=0;" edge="1" parent="1" source="UbmrtDJ3BTN43E1XNRnQ-96" target="UbmrtDJ3BTN43E1XNRnQ-97">
          <mxGeometry relative="1" as="geometry">
            <mxPoint x="1390" y="405" as="sourcePoint" />
            <mxPoint x="1450" y="405" as="targetPoint" />
          </mxGeometry>
        </mxCell>
        <mxCell id="UbmrtDJ3BTN43E1XNRnQ-101" style="edgeStyle=orthogonalEdgeStyle;rounded=0;html=1;dashed=1;labelBackgroundColor=none;startArrow=none;startFill=0;startSize=8;endArrow=open;endFill=0;endSize=16;fontFamily=Verdana;fontSize=12;entryX=0;entryY=0.5;entryDx=0;entryDy=0;exitX=0.987;exitY=0.422;exitDx=0;exitDy=0;exitPerimeter=0;" edge="1" parent="1" source="UbmrtDJ3BTN43E1XNRnQ-98" target="UbmrtDJ3BTN43E1XNRnQ-99">
          <mxGeometry relative="1" as="geometry">
            <mxPoint x="1380" y="259.79999999999995" as="sourcePoint" />
            <mxPoint x="1440" y="259.79999999999995" as="targetPoint" />
          </mxGeometry>
        </mxCell>
        <mxCell id="UbmrtDJ3BTN43E1XNRnQ-102" style="edgeStyle=none;rounded=0;html=1;dashed=1;labelBackgroundColor=none;startArrow=none;startFill=0;startSize=8;endArrow=open;endFill=0;endSize=16;fontFamily=Verdana;fontSize=12;entryX=0;entryY=0;entryDx=70;entryDy=0;entryPerimeter=0;exitX=0;exitY=0;exitDx=0;exitDy=0;" edge="1" parent="1" source="UbmrtDJ3BTN43E1XNRnQ-94" target="UbmrtDJ3BTN43E1XNRnQ-3">
          <mxGeometry relative="1" as="geometry">
            <mxPoint x="980" y="506.5" as="sourcePoint" />
            <mxPoint x="1023" y="603.5" as="targetPoint" />
          </mxGeometry>
        </mxCell>
        <mxCell id="UbmrtDJ3BTN43E1XNRnQ-103" value="Base de Datos" style="verticalAlign=top;align=left;spacingTop=8;spacingLeft=2;spacingRight=12;shape=cube;size=10;direction=south;fontStyle=4;html=1;rounded=0;shadow=0;comic=0;labelBackgroundColor=none;strokeWidth=1;fontFamily=Verdana;fontSize=12" vertex="1" parent="1">
          <mxGeometry x="870" y="765" width="370" height="150" as="geometry" />
        </mxCell>
        <mxCell id="UbmrtDJ3BTN43E1XNRnQ-104" value="" style="ellipse;whiteSpace=wrap;html=1;rounded=0;shadow=0;comic=0;labelBackgroundColor=none;strokeWidth=1;fontFamily=Verdana;fontSize=12;align=center;" vertex="1" parent="1">
          <mxGeometry x="870" y="805" width="20" height="20" as="geometry" />
        </mxCell>
        <mxCell id="UbmrtDJ3BTN43E1XNRnQ-105" style="edgeStyle=elbowEdgeStyle;rounded=0;html=1;labelBackgroundColor=none;startArrow=none;startFill=0;startSize=8;endArrow=none;endFill=0;endSize=16;fontFamily=Verdana;fontSize=12;" edge="1" parent="1" source="UbmrtDJ3BTN43E1XNRnQ-104" target="UbmrtDJ3BTN43E1XNRnQ-108">
          <mxGeometry relative="1" as="geometry" />
        </mxCell>
        <mxCell id="UbmrtDJ3BTN43E1XNRnQ-108" value="Module" style="shape=component;align=left;spacingLeft=36;rounded=0;shadow=0;comic=0;labelBackgroundColor=none;strokeWidth=1;fontFamily=Verdana;fontSize=12;html=1;" vertex="1" parent="1">
          <mxGeometry x="900" y="825" width="120" height="60" as="geometry" />
        </mxCell>
        <mxCell id="UbmrtDJ3BTN43E1XNRnQ-109" value="MySQL" style="html=1;rounded=0;shadow=0;comic=0;labelBackgroundColor=none;strokeWidth=1;fontFamily=Verdana;fontSize=12;align=center;" vertex="1" parent="1">
          <mxGeometry x="1090" y="825" width="110" height="50" as="geometry" />
        </mxCell>
        <mxCell id="UbmrtDJ3BTN43E1XNRnQ-111" style="edgeStyle=orthogonalEdgeStyle;rounded=0;html=1;dashed=1;labelBackgroundColor=none;startArrow=none;startFill=0;startSize=8;endArrow=open;endFill=0;endSize=16;fontFamily=Verdana;fontSize=12;entryX=0;entryY=0.5;entryDx=0;entryDy=0;exitX=0.987;exitY=0.422;exitDx=0;exitDy=0;exitPerimeter=0;" edge="1" parent="1" source="UbmrtDJ3BTN43E1XNRnQ-108" target="UbmrtDJ3BTN43E1XNRnQ-109">
          <mxGeometry relative="1" as="geometry">
            <mxPoint x="1020" y="834.8" as="sourcePoint" />
            <mxPoint x="1080" y="834.8" as="targetPoint" />
          </mxGeometry>
        </mxCell>
        <mxCell id="UbmrtDJ3BTN43E1XNRnQ-112" value="Geolocalización" style="verticalAlign=top;align=left;spacingTop=8;spacingLeft=2;spacingRight=12;shape=cube;size=10;direction=south;fontStyle=4;html=1;rounded=0;shadow=0;comic=0;labelBackgroundColor=none;strokeWidth=1;fontFamily=Verdana;fontSize=12" vertex="1" parent="1">
          <mxGeometry x="380" y="750" width="370" height="150" as="geometry" />
        </mxCell>
        <mxCell id="UbmrtDJ3BTN43E1XNRnQ-113" value="" style="ellipse;whiteSpace=wrap;html=1;rounded=0;shadow=0;comic=0;labelBackgroundColor=none;strokeWidth=1;fontFamily=Verdana;fontSize=12;align=center;" vertex="1" parent="1">
          <mxGeometry x="380" y="790" width="20" height="20" as="geometry" />
        </mxCell>
        <mxCell id="UbmrtDJ3BTN43E1XNRnQ-114" style="edgeStyle=elbowEdgeStyle;rounded=0;html=1;labelBackgroundColor=none;startArrow=none;startFill=0;startSize=8;endArrow=none;endFill=0;endSize=16;fontFamily=Verdana;fontSize=12;" edge="1" parent="1" source="UbmrtDJ3BTN43E1XNRnQ-113" target="UbmrtDJ3BTN43E1XNRnQ-115">
          <mxGeometry relative="1" as="geometry" />
        </mxCell>
        <mxCell id="UbmrtDJ3BTN43E1XNRnQ-115" value="Module" style="shape=component;align=left;spacingLeft=36;rounded=0;shadow=0;comic=0;labelBackgroundColor=none;strokeWidth=1;fontFamily=Verdana;fontSize=12;html=1;" vertex="1" parent="1">
          <mxGeometry x="410" y="810" width="120" height="60" as="geometry" />
        </mxCell>
        <mxCell id="UbmrtDJ3BTN43E1XNRnQ-116" value="Localización&amp;nbsp;&lt;div&gt;&lt;span style=&quot;background-color: initial;&quot;&gt;de Vendedores&lt;/span&gt;&lt;br&gt;&lt;/div&gt;" style="html=1;rounded=0;shadow=0;comic=0;labelBackgroundColor=none;strokeWidth=1;fontFamily=Verdana;fontSize=12;align=center;" vertex="1" parent="1">
          <mxGeometry x="600" y="810" width="110" height="50" as="geometry" />
        </mxCell>
        <mxCell id="UbmrtDJ3BTN43E1XNRnQ-117" style="edgeStyle=orthogonalEdgeStyle;rounded=0;html=1;dashed=1;labelBackgroundColor=none;startArrow=none;startFill=0;startSize=8;endArrow=open;endFill=0;endSize=16;fontFamily=Verdana;fontSize=12;entryX=0;entryY=0.5;entryDx=0;entryDy=0;exitX=0.987;exitY=0.422;exitDx=0;exitDy=0;exitPerimeter=0;" edge="1" parent="1" source="UbmrtDJ3BTN43E1XNRnQ-115" target="UbmrtDJ3BTN43E1XNRnQ-116">
          <mxGeometry relative="1" as="geometry">
            <mxPoint x="530" y="819.8" as="sourcePoint" />
            <mxPoint x="590" y="819.8" as="targetPoint" />
          </mxGeometry>
        </mxCell>
        <mxCell id="UbmrtDJ3BTN43E1XNRnQ-118" value="Administración del Sistema" style="verticalAlign=top;align=left;spacingTop=8;spacingLeft=2;spacingRight=12;shape=cube;size=10;direction=south;fontStyle=4;html=1;rounded=0;shadow=0;comic=0;labelBackgroundColor=none;strokeWidth=1;fontFamily=Verdana;fontSize=12" vertex="1" parent="1">
          <mxGeometry x="1160" y="388" width="370" height="170" as="geometry" />
        </mxCell>
        <mxCell id="UbmrtDJ3BTN43E1XNRnQ-119" value="" style="ellipse;whiteSpace=wrap;html=1;rounded=0;shadow=0;comic=0;labelBackgroundColor=none;strokeWidth=1;fontFamily=Verdana;fontSize=12;align=center;" vertex="1" parent="1">
          <mxGeometry x="1160" y="428" width="20" height="20" as="geometry" />
        </mxCell>
        <mxCell id="UbmrtDJ3BTN43E1XNRnQ-120" style="edgeStyle=elbowEdgeStyle;rounded=0;html=1;labelBackgroundColor=none;startArrow=none;startFill=0;startSize=8;endArrow=none;endFill=0;endSize=16;fontFamily=Verdana;fontSize=12;" edge="1" parent="1" source="UbmrtDJ3BTN43E1XNRnQ-119" target="UbmrtDJ3BTN43E1XNRnQ-123">
          <mxGeometry relative="1" as="geometry" />
        </mxCell>
        <mxCell id="UbmrtDJ3BTN43E1XNRnQ-121" value="Module" style="shape=component;align=left;spacingLeft=36;rounded=0;shadow=0;comic=0;labelBackgroundColor=none;strokeWidth=1;fontFamily=Verdana;fontSize=12;html=1;" vertex="1" parent="1">
          <mxGeometry x="1190" y="488" width="120" height="60" as="geometry" />
        </mxCell>
        <mxCell id="UbmrtDJ3BTN43E1XNRnQ-122" value="Gestión&amp;nbsp;&lt;div&gt;de Seguridad&lt;/div&gt;" style="html=1;rounded=0;shadow=0;comic=0;labelBackgroundColor=none;strokeWidth=1;fontFamily=Verdana;fontSize=12;align=center;" vertex="1" parent="1">
          <mxGeometry x="1370" y="493" width="110" height="50" as="geometry" />
        </mxCell>
        <mxCell id="UbmrtDJ3BTN43E1XNRnQ-123" value="Module" style="shape=component;align=left;spacingLeft=36;rounded=0;shadow=0;comic=0;labelBackgroundColor=none;strokeWidth=1;fontFamily=Verdana;fontSize=12;html=1;" vertex="1" parent="1">
          <mxGeometry x="1190" y="418" width="120" height="60" as="geometry" />
        </mxCell>
        <mxCell id="UbmrtDJ3BTN43E1XNRnQ-124" value="&lt;div&gt;Panel&amp;nbsp;&lt;/div&gt;&lt;div&gt;de&lt;/div&gt;&lt;div&gt;&amp;nbsp;Administradores&lt;br&gt;&lt;/div&gt;" style="html=1;rounded=0;shadow=0;comic=0;labelBackgroundColor=none;strokeWidth=1;fontFamily=Verdana;fontSize=12;align=center;" vertex="1" parent="1">
          <mxGeometry x="1380" y="418" width="110" height="50" as="geometry" />
        </mxCell>
        <mxCell id="UbmrtDJ3BTN43E1XNRnQ-125" style="edgeStyle=orthogonalEdgeStyle;rounded=0;html=1;dashed=1;labelBackgroundColor=none;startArrow=none;startFill=0;startSize=8;endArrow=open;endFill=0;endSize=16;fontFamily=Verdana;fontSize=12;entryX=0;entryY=0.5;entryDx=0;entryDy=0;" edge="1" parent="1" source="UbmrtDJ3BTN43E1XNRnQ-121" target="UbmrtDJ3BTN43E1XNRnQ-122">
          <mxGeometry relative="1" as="geometry">
            <mxPoint x="1320" y="603" as="sourcePoint" />
            <mxPoint x="1380" y="603" as="targetPoint" />
          </mxGeometry>
        </mxCell>
        <mxCell id="UbmrtDJ3BTN43E1XNRnQ-126" style="edgeStyle=orthogonalEdgeStyle;rounded=0;html=1;dashed=1;labelBackgroundColor=none;startArrow=none;startFill=0;startSize=8;endArrow=open;endFill=0;endSize=16;fontFamily=Verdana;fontSize=12;entryX=0;entryY=0.5;entryDx=0;entryDy=0;exitX=0.987;exitY=0.422;exitDx=0;exitDy=0;exitPerimeter=0;" edge="1" parent="1" source="UbmrtDJ3BTN43E1XNRnQ-123" target="UbmrtDJ3BTN43E1XNRnQ-124">
          <mxGeometry relative="1" as="geometry">
            <mxPoint x="1310" y="457.79999999999995" as="sourcePoint" />
            <mxPoint x="1370" y="457.79999999999995" as="targetPoint" />
          </mxGeometry>
        </mxCell>
        <mxCell id="UbmrtDJ3BTN43E1XNRnQ-128" style="edgeStyle=none;rounded=0;html=1;dashed=1;labelBackgroundColor=none;startArrow=none;startFill=0;startSize=8;endArrow=open;endFill=0;endSize=16;fontFamily=Verdana;fontSize=12;exitX=0.261;exitY=1.003;exitDx=0;exitDy=0;exitPerimeter=0;entryX=0.994;entryY=0.109;entryDx=0;entryDy=0;entryPerimeter=0;" edge="1" parent="1" source="UbmrtDJ3BTN43E1XNRnQ-103" target="UbmrtDJ3BTN43E1XNRnQ-3">
          <mxGeometry relative="1" as="geometry">
            <mxPoint x="1300" y="640" as="sourcePoint" />
            <mxPoint x="900" y="640" as="targetPoint" />
          </mxGeometry>
        </mxCell>
        <mxCell id="UbmrtDJ3BTN43E1XNRnQ-129" style="edgeStyle=none;rounded=0;html=1;dashed=1;labelBackgroundColor=none;startArrow=none;startFill=0;startSize=8;endArrow=open;endFill=0;endSize=16;fontFamily=Verdana;fontSize=12;exitX=0;exitY=0;exitDx=0;exitDy=0;entryX=1.016;entryY=0.779;entryDx=0;entryDy=0;entryPerimeter=0;" edge="1" parent="1" source="UbmrtDJ3BTN43E1XNRnQ-113" target="UbmrtDJ3BTN43E1XNRnQ-3">
          <mxGeometry relative="1" as="geometry">
            <mxPoint x="1169" y="844" as="sourcePoint" />
            <mxPoint x="912" y="639" as="targetPoint" />
          </mxGeometry>
        </mxCell>
        <mxCell id="UbmrtDJ3BTN43E1XNRnQ-130" style="edgeStyle=none;rounded=0;html=1;dashed=1;labelBackgroundColor=none;startArrow=none;startFill=0;startSize=8;endArrow=open;endFill=0;endSize=16;fontFamily=Verdana;fontSize=12;entryX=0.716;entryY=0.01;entryDx=0;entryDy=0;entryPerimeter=0;exitX=0;exitY=0.5;exitDx=0;exitDy=0;" edge="1" parent="1" source="UbmrtDJ3BTN43E1XNRnQ-119" target="UbmrtDJ3BTN43E1XNRnQ-3">
          <mxGeometry relative="1" as="geometry">
            <mxPoint x="1250" y="270" as="sourcePoint" />
            <mxPoint x="947" y="587" as="targetPoint" />
          </mxGeometry>
        </mxCell>
      </root>
    </mxGraphModel>
  </diagram>
</mxfile>
